<svg 
 xmlns="http://www.w3.org/2000/svg"
 xmlns:xlink="http://www.w3.org/1999/xlink"
 width="48px" height="48px">
<path fill-rule="evenodd"  fill="rgb(0, 0, 0)"
 d="M24.000,48.000 C10.766,48.000 -0.000,37.233 -0.000,24.000 C-0.000,10.766 10.766,-0.000 24.000,-0.000 C37.234,-0.000 48.000,10.766 48.000,24.000 C48.000,37.233 37.234,48.000 24.000,48.000 ZM24.000,1.200 C11.428,1.200 1.200,11.428 1.200,24.000 C1.200,36.572 11.428,46.800 24.000,46.800 C36.572,46.800 46.800,36.572 46.800,24.000 C46.800,11.428 36.572,1.200 24.000,1.200 ZM24.000,42.584 C13.753,42.584 5.415,34.247 5.415,24.000 C5.415,13.752 13.753,5.415 24.000,5.415 C34.247,5.415 42.585,13.752 42.585,24.000 C42.585,34.247 34.247,42.584 24.000,42.584 ZM24.000,6.615 C14.414,6.615 6.615,14.413 6.615,23.999 C6.615,33.585 14.414,41.384 24.000,41.384 C33.586,41.384 41.385,33.586 41.385,24.000 C41.385,14.414 33.586,6.615 24.000,6.615 ZM32.022,28.233 C29.687,28.233 27.788,26.334 27.788,24.000 C27.788,21.665 29.687,19.766 32.022,19.766 C34.357,19.766 36.256,21.665 36.256,24.000 C36.256,26.334 34.357,28.233 32.022,28.233 ZM32.022,20.965 C30.349,20.965 28.988,22.326 28.988,23.999 C28.988,25.672 30.349,27.033 32.022,27.033 C33.695,27.033 35.056,25.672 35.056,23.999 C35.056,22.326 33.695,20.965 32.022,20.965 ZM24.000,20.211 C21.665,20.211 19.766,18.312 19.766,15.978 C19.766,13.643 21.665,11.744 24.000,11.744 C26.335,11.744 28.233,13.642 28.233,15.977 C28.233,18.312 26.335,20.211 24.000,20.211 ZM24.000,12.944 C22.327,12.944 20.966,14.304 20.966,15.977 C20.966,17.650 22.327,19.011 24.000,19.011 C25.673,19.011 27.034,17.650 27.034,15.978 C27.034,14.305 25.673,12.944 24.000,12.944 ZM15.978,28.233 C13.643,28.233 11.744,26.334 11.744,24.000 C11.744,21.665 13.643,19.766 15.978,19.766 C18.312,19.766 20.212,21.665 20.212,24.000 C20.212,26.334 18.312,28.233 15.978,28.233 ZM15.978,20.965 C14.305,20.965 12.944,22.326 12.944,23.999 C12.944,25.672 14.305,27.033 15.978,27.033 C17.651,27.033 19.012,25.672 19.012,23.999 C19.012,22.326 17.651,20.965 15.978,20.965 ZM24.000,27.788 C26.335,27.788 28.233,29.687 28.233,32.022 C28.233,34.356 26.335,36.255 24.000,36.255 C21.665,36.255 19.766,34.356 19.766,32.022 C19.766,29.687 21.665,27.788 24.000,27.788 ZM24.000,35.055 C25.673,35.055 27.034,33.695 27.034,32.022 C27.034,30.349 25.673,28.987 24.000,28.987 C22.327,28.987 20.966,30.349 20.966,32.022 C20.966,33.695 22.327,35.055 24.000,35.055 Z"/>
</svg>