<svg enable-background="new -16.923 -8.166 80 100" height="100" viewBox="-16.923 -8.166 80 100" width="80" xmlns="http://www.w3.org/2000/svg"><path d="m16.22 17.61s-2.736 3.244-3.919 10.163c-1.714 10.029-4.564 50.389-10.31 57.11h38.888c-7.217-10.189-8.756-46.539-10.595-57.202-1.262-7.316-4.362-9.797-4.362-9.797z" fill="#efefef"/><g stroke="#201600" stroke-miterlimit="10" stroke-width="2"><path d="m16.4 17.193s-2.737 2.97-3.92 9.889c-1.714 10.029-4.564 50.389-10.31 57.11h38.888c-7.217-10.188-8.756-46.538-10.595-57.201-1.262-7.317-4.362-10.071-4.362-10.071" fill="none"/><path d="m16.031 17.296s5.189 1.28 10.379 0" fill="none"/><path d="m26.285 17.194c-.276-.782-.862-1.416-.733-3.091.348-3.654 1.899-6.993 2.11-7.799.266-1.017-12.708-1.017-12.456 0 .198.806 1.579 4.145 1.907 7.799.122 1.675-.501 2.561-.763 3.342" fill="#fff"/><path d="m26.919 1.083c-.557 3.42-5.489 8.632-5.742 13.354l4.559.25s4.405-4.257 2.894-13.444z" fill="#efefef"/><path d="m15.913 1.083c.558 3.42 5.489 8.632 5.743 13.354l-4.56.25s-4.405-4.257-2.894-13.444z" fill="#efefef"/></g></svg>