<svg 
 xmlns="http://www.w3.org/2000/svg"
 xmlns:xlink="http://www.w3.org/1999/xlink"
 width="42px" height="48px">
<path fill-rule="evenodd"  fill="rgb(0, 0, 0)"
 d="M14.099,0.497 C14.049,0.210 13.799,-0.000 13.507,-0.000 L9.350,-0.000 C9.066,-0.000 8.821,0.199 8.763,0.477 C8.738,0.594 8.215,3.465 11.925,16.311 C11.103,17.093 8.607,19.645 6.083,23.998 C3.308,28.783 0.000,36.727 0.000,47.400 C0.000,47.731 0.269,48.000 0.600,48.000 L41.399,48.000 C41.731,48.000 42.000,47.731 42.000,47.400 C42.000,28.701 31.828,18.071 30.001,16.313 C33.712,3.466 33.188,0.594 33.164,0.477 C33.106,0.199 32.861,-0.000 32.576,-0.000 L28.492,-0.000 C28.200,-0.000 27.951,0.210 27.901,0.497 C27.316,3.859 24.414,6.300 21.000,6.300 C17.585,6.300 14.683,3.859 14.099,0.497 ZM40.796,46.800 L1.204,46.800 C1.421,28.579 11.449,18.421 12.839,17.100 L17.086,17.100 C15.898,19.869 12.350,28.827 12.350,37.050 C12.350,37.381 12.619,37.650 12.951,37.650 C13.282,37.650 13.551,37.381 13.551,37.050 C13.551,28.597 17.556,19.017 18.397,17.100 L23.530,17.100 C24.370,19.017 28.376,28.597 28.376,37.050 C28.376,37.381 28.644,37.650 28.976,37.650 C29.308,37.650 29.576,37.381 29.576,37.050 C29.576,28.827 26.028,19.869 24.840,17.100 L29.088,17.100 C30.484,18.417 40.577,28.575 40.796,46.800 ZM28.982,1.200 L32.009,1.200 C32.002,2.417 31.668,6.204 28.871,15.900 L13.055,15.900 C10.253,6.187 9.923,2.405 9.916,1.200 L13.018,1.200 C13.891,4.879 17.171,7.500 21.000,7.500 C24.829,7.500 28.108,4.879 28.982,1.200 Z"/>
</svg>