<svg enable-background="new -22.613 -29.037 80 100" height="100" viewBox="-22.613 -29.037 80 100" width="80" xmlns="http://www.w3.org/2000/svg"><g stroke="#201600" stroke-miterlimit="10" stroke-width="2"><path d="m12.875 13.924c-1.245.854-8.898 6.93-11.766 24.914 0 0 7.077 3.181 16.673 3.181 10.359 0 16.266-3.181 16.266-3.181-2.869-17.984-11.516-24.277-12.76-25.132" fill="#fff"/><path d="m22.011 14.297c-.293-.826-.622-1.206-.486-2.975.367-3.86 2.007-7.387 2.229-8.238.28-1.073-2.438-2.177-3.296-2.078-.916.106-2.356 1.435-3.224 1.702-.82-.267-2.658-1.596-3.523-1.702-.811-.099-3.379 1.005-3.114 2.078.21.851 1.668 4.378 2.015 8.238.129 1.769-.241 2.125-.517 2.952 0 0 2.876-.7 4.662-.622 3.006.132 5.254.645 5.254.645-.297-.734-.931-1.99-.704-2.806-4.81-1.361-8.695-.168-8.695-.168" fill="#fff"/><path d="m12.875 12.718s3.839-.977 8.693 0" fill="none"/></g></svg>