<svg enable-background="new -9.551 -7.363 80 100" height="100" viewBox="-9.551 -7.363 80 100" width="80" xmlns="http://www.w3.org/2000/svg"><g stroke="#201600" stroke-miterlimit="10" stroke-width="2"><path d="m33.673 16.69c.449-4.719 3.014-10.43 3.285-11.471.344-1.311-2.908-3.939-2.908-3.939s-4.001 3.153-5.062 3.479c-1.003-.326-5.708-3.479-5.708-3.479s-2.73 2.628-2.406 3.939c.257 1.041 2.599 6.752 3.022 11.471 0 0-21.755 20.078-22.857 68.639h56.031c-3.692-53.429-23.397-68.639-23.397-68.639z" fill="#fff"/><g fill="none"><path d="m18.04 71.46c0-6.188 5.015-11.203 11.202-11.203 4.949 0 8.962 4.013 8.962 8.963 0 3.959-3.211 7.169-7.17 7.169-3.168 0-5.736-2.567-5.736-5.735 0-2.534 2.055-4.589 4.589-4.589 2.026 0 3.67 1.644 3.67 3.671"/><path d="m38.205 70.806c4.656-4.075 11.732-3.603 15.807 1.054 3.26 3.725 2.883 9.387-.844 12.646-2.979 2.607-7.51 2.306-10.115-.674-2.086-2.384-1.846-6.008.539-8.094 1.906-1.669 4.807-1.476 6.475.432 1.336 1.525 1.18 3.845-.346 5.18"/><path d="m2.581 84.947c-3.167-5.314-1.428-12.19 3.887-15.358 4.252-2.534 9.753-1.142 12.287 3.109 2.027 3.401.914 7.802-2.487 9.829-2.721 1.622-6.242.731-7.864-1.989-1.297-2.177-.584-4.993 1.593-6.291 1.741-1.038 3.995-.468 5.032 1.273"/></g></g></svg>