<svg enable-background="new -9.464 -7.363 80 100" height="100" viewBox="-9.464 -7.363 80 100" width="80" xmlns="http://www.w3.org/2000/svg"><path d="m24.481 17.622c-1.518 1.041-23.481 13.522-23.481 68.658h58.881c0-56.104-22.341-67.617-23.859-68.658" fill="#fff" stroke="#201600" stroke-miterlimit="10" stroke-width="2"/><path d="m31.852 23.212c0 .85-.689 1.539-1.539 1.539-.849 0-1.538-.689-1.538-1.539 0-.849.689-1.538 1.538-1.538.85 0 1.539.689 1.539 1.538z" fill="#201600"/><path d="m35.453 17.935c.486-5.101 3.258-11.273 3.552-12.397.371-1.418-3.144-4.258-3.144-4.258s-4.324 3.408-5.471 3.761c-1.083-.353-6.168-3.761-6.168-3.761s-2.951 2.84-2.601 4.258c.278 1.125 2.809 7.297 3.268 12.397l5.424 4.659z" fill="#fff" stroke="#201600" stroke-miterlimit="10" stroke-width="2"/></svg>