<svg enable-background="new -29.796 -8.023 80 100" height="100" viewBox="-29.796 -8.023 80 100" width="80" xmlns="http://www.w3.org/2000/svg"><path d="m18.48 86c-3.545-13.625 1.477-56.883.702-61.022-.431-2.299-2.371-5.427-2.939-6.898 0 0-.918-2.415-.753-4.561.446-4.682 2.435-8.959 2.704-9.991.341-1.302-2.957-2.641-3.997-2.521-1.11.129-2.547 1.741-3.599 2.064-.994-.322-3.224-1.935-4.273-2.064-.983-.12-4.098 1.219-3.776 2.521.255 1.032 2.023 5.31 2.444 9.991.156 2.146-.941 4.561-.941 4.561-.568 1.472-2.509 4.6-2.939 6.898-.776 4.14 2.82 46.34.015 61.022" fill="#fff" stroke="#201600" stroke-miterlimit="10" stroke-width="2"/><path d="m6.806 20.441c.25.404.272.758.25 1.063-.035.299-.145.555-.311.756-.167.202-.391.354-.672.44-.289.077-.618.115-1.083-.021-.116-.468-.108-.776-.068-1.051.047-.266.142-.477.284-.645.142-.169.326-.296.573-.388.257-.087.539-.139 1.027-.154z" fill="#201600"/><path d="m12.856 20.441c.488.015.77.068 1.026.155.247.092.431.219.573.388.142.168.236.379.283.645.04.275.047.583-.068 1.051-.465.136-.794.099-1.083.021-.28-.086-.505-.237-.671-.439-.167-.201-.276-.457-.311-.756-.022-.307.001-.661.251-1.065z" fill="#201600"/><path d="m.599 85.197h18.205" fill="none" stroke="#201600" stroke-miterlimit="10" stroke-width="2"/></svg>