<svg 
 xmlns="http://www.w3.org/2000/svg"
 xmlns:xlink="http://www.w3.org/1999/xlink"
 width="48px" height="41px">
<path fill-rule="evenodd"  fill="rgb(0, 0, 0)"
 d="M47.326,25.725 C45.383,31.812 39.686,35.712 33.561,35.712 C32.123,35.712 30.662,35.497 29.219,35.045 C28.321,34.763 27.457,34.396 26.639,33.951 C24.963,36.882 22.275,39.035 19.007,40.049 C17.683,40.459 16.341,40.655 15.022,40.655 C9.327,40.655 4.037,37.020 2.249,31.356 C1.327,28.437 1.456,25.270 2.611,22.439 C3.750,19.646 5.829,17.303 8.465,15.839 L9.060,16.892 C4.080,19.656 1.704,25.588 3.411,30.996 C4.380,34.068 6.499,36.581 9.376,38.073 C12.253,39.565 15.545,39.858 18.643,38.897 C21.624,37.973 24.074,36.005 25.597,33.327 C25.241,33.093 24.896,32.843 24.563,32.580 C23.215,35.018 20.957,36.862 18.264,37.697 C17.191,38.030 16.093,38.194 15.000,38.194 C13.265,38.194 11.545,37.779 9.964,36.959 C7.387,35.622 5.490,33.371 4.621,30.620 C4.152,29.134 4.012,27.603 4.205,26.070 L5.413,26.219 C5.242,27.580 5.366,28.939 5.783,30.260 C6.554,32.703 8.240,34.703 10.528,35.890 C12.817,37.077 15.435,37.310 17.900,36.545 C20.378,35.777 22.441,34.047 23.621,31.765 C22.815,31.006 22.096,30.153 21.483,29.220 C19.694,26.497 18.887,23.227 19.209,20.012 L20.420,20.132 C19.807,26.249 23.662,32.038 29.586,33.895 C36.531,36.072 43.968,32.243 46.165,25.361 C48.362,18.478 44.499,11.108 37.554,8.931 C31.713,7.100 25.239,9.572 22.160,14.810 L21.108,14.203 C22.730,11.442 25.285,9.276 28.302,8.102 C31.363,6.910 34.780,6.796 37.921,7.780 C45.506,10.158 49.725,18.208 47.326,25.725 ZM43.323,21.413 C43.322,22.398 43.169,23.378 42.866,24.327 L41.705,23.963 C41.971,23.132 42.105,22.274 42.105,21.413 L43.323,21.413 ZM36.144,13.351 L36.511,12.201 C39.875,13.255 42.408,16.039 43.122,19.467 L41.930,19.711 C41.305,16.710 39.088,14.273 36.144,13.351 ZM4.443,24.804 C4.559,24.340 4.708,23.879 4.886,23.434 L6.018,23.878 C5.860,24.274 5.728,24.683 5.624,25.095 L4.443,24.804 ZM11.762,17.100 C13.746,16.485 15.850,16.443 17.847,16.979 C19.790,17.500 21.547,18.540 22.928,19.986 C24.071,21.183 24.905,22.592 25.405,24.177 C25.567,24.693 25.692,25.223 25.776,25.754 C25.918,26.661 25.941,27.580 25.847,28.491 C26.405,29.090 27.030,29.622 27.710,30.071 C28.538,30.622 29.442,31.052 30.398,31.351 C33.076,32.191 35.925,31.947 38.419,30.664 C40.912,29.380 42.752,27.211 43.599,24.557 C44.447,21.902 44.201,19.079 42.905,16.608 C41.610,14.136 39.422,12.313 36.743,11.474 C31.493,9.828 25.912,12.442 23.843,17.442 C25.684,19.042 27.040,21.106 27.777,23.441 C28.272,25.008 28.469,26.625 28.364,28.248 L27.149,28.171 C27.245,26.696 27.065,25.226 26.616,23.801 C25.905,21.551 24.562,19.576 22.733,18.090 C20.274,16.091 17.183,15.131 14.028,15.388 L13.929,14.186 C17.127,13.926 20.266,14.802 22.856,16.662 C23.967,14.191 25.903,12.193 28.376,10.983 C31.106,9.648 34.207,9.414 37.110,10.324 C40.099,11.260 42.540,13.294 43.985,16.052 C45.431,18.809 45.706,21.959 44.760,24.920 C43.814,27.883 41.762,30.302 38.979,31.734 C37.284,32.607 35.441,33.049 33.584,33.049 C32.394,33.049 31.198,32.868 30.031,32.502 C28.965,32.168 27.956,31.688 27.033,31.074 C26.193,30.518 25.426,29.852 24.754,29.092 C22.695,26.767 21.647,23.696 21.858,20.627 C19.299,18.087 15.597,17.176 12.126,18.252 C9.621,19.028 7.585,20.733 6.394,23.052 L5.309,22.505 C6.650,19.894 8.942,17.975 11.762,17.100 ZM24.677,26.978 C24.661,26.631 24.627,26.284 24.573,25.940 C24.499,25.468 24.388,24.996 24.243,24.537 C23.966,23.660 23.574,22.842 23.072,22.094 C23.189,23.823 23.742,25.507 24.677,26.978 ZM2.868,13.016 L4.688,8.745 L12.770,6.240 L16.722,8.721 L11.574,16.506 L2.868,13.016 ZM11.330,10.943 L8.576,11.797 L10.900,14.371 L11.330,10.943 ZM5.590,9.729 L4.740,11.723 L6.927,11.045 L7.114,9.257 L5.590,9.729 ZM5.473,12.759 L9.138,14.228 L7.299,12.193 L5.473,12.759 ZM9.806,8.422 L8.379,8.865 L8.192,10.652 L10.987,9.786 L9.806,8.422 ZM14.433,9.981 L12.607,10.548 L12.267,13.257 L14.433,9.981 ZM14.439,8.716 L12.594,7.558 L11.071,8.030 L12.252,9.394 L14.439,8.716 ZM10.878,4.818 L13.423,-0.000 L14.501,0.559 L11.956,5.377 L10.878,4.818 ZM5.874,0.470 L7.036,0.110 L8.675,5.300 L7.513,5.660 L5.874,0.470 ZM-0.000,5.056 L0.564,3.987 L5.426,6.508 L4.862,7.577 L-0.000,5.056 ZM3.086,34.786 L2.061,35.436 C1.736,34.932 1.436,34.404 1.172,33.866 L2.266,33.338 C2.510,33.834 2.786,34.321 3.086,34.786 ZM8.852,39.919 L8.310,41.000 C6.075,39.899 4.110,38.259 2.628,36.256 L3.609,35.542 C4.977,37.390 6.790,38.904 8.852,39.919 Z"/>
</svg>