<svg enable-background="new -14.567 -6.428 80 100" height="100" viewBox="-14.567 -6.428 80 100" width="80" xmlns="http://www.w3.org/2000/svg"><g stroke="#201600" stroke-miterlimit="10" stroke-width="2"><path d="m20.056 18.386c-12.776 17.263-18.927 67.686-18.927 67.686l48.608-.016s-9.91-57.995-21.325-67.67" fill="#fff"/><path d="m19.441 18.601s2.709.641 4.533.634c3.514-.013 5.082-.863 5.082-.863" fill="none"/><g fill="#fff"><path d="m17.378 8.31-2.45 12.798-2.605-.993 3.164-18.05 4.9-.993s2.783 2.156 3.901 2.194c1.278.044 4.621-2.194 4.621-2.194l4.617.993 3.446 18.05-2.608.993-2.949-12.798"/><path d="m28.546 18.319c.394-4.119 2.63-9.103 2.868-10.01.3-1.146-2.54-3.438-2.54-3.438s-3.49 2.752-4.416 3.037c-.875-.285-4.98-3.037-4.98-3.037s-2.383 2.293-2.1 3.438c.224.907 2.268 5.891 2.638 10.01"/></g></g></svg>