<svg 
 xmlns="http://www.w3.org/2000/svg"
 xmlns:xlink="http://www.w3.org/1999/xlink"
 width="48px" height="38px">
<path fill-rule="evenodd"  fill="rgb(0, 0, 0)"
 d="M45.866,25.355 L44.794,25.355 L44.794,29.062 L45.417,29.062 C46.841,29.062 48.000,30.209 48.000,31.618 C48.000,32.794 47.189,33.777 46.094,34.074 L45.224,35.804 C44.543,37.160 43.169,38.002 41.638,38.002 L6.362,38.002 C4.831,38.002 3.457,37.160 2.776,35.804 L1.906,34.074 C0.811,33.777 -0.000,32.794 -0.000,31.618 C-0.000,30.209 1.158,29.062 2.583,29.062 L27.896,29.062 L27.896,15.830 C27.896,14.890 27.119,14.124 26.165,14.124 L15.298,14.124 L15.298,16.198 C15.298,17.727 14.304,19.028 12.923,19.514 L12.923,21.791 C12.923,22.146 12.633,22.433 12.274,22.433 L10.488,22.433 L10.488,25.792 C10.488,26.146 10.198,26.433 9.839,26.433 C9.481,26.433 9.191,26.146 9.191,25.792 L9.191,22.433 L7.405,22.433 C7.046,22.433 6.756,22.146 6.756,21.791 L6.756,19.514 C5.375,19.028 4.381,17.727 4.381,16.198 L4.381,3.350 C4.381,2.996 4.672,2.708 5.030,2.708 L6.756,2.708 L6.756,0.640 C6.756,0.285 7.046,-0.002 7.405,-0.002 L12.274,-0.002 C12.633,-0.002 12.923,0.285 12.923,0.640 L12.923,2.708 L34.783,2.708 C39.475,2.708 43.479,5.899 44.519,10.366 L45.866,10.366 C47.043,10.366 48.000,11.314 48.000,12.478 L48.000,23.243 C48.000,24.407 47.043,25.355 45.866,25.355 ZM3.937,35.232 C4.398,36.149 5.327,36.719 6.362,36.719 L41.638,36.719 C42.673,36.719 43.602,36.149 44.063,35.232 L44.595,34.174 L3.405,34.174 L3.937,35.232 ZM8.054,21.149 L11.626,21.149 L11.626,19.723 L8.054,19.723 L8.054,21.149 ZM11.626,1.282 L8.054,1.282 L8.054,2.708 L11.626,2.708 L11.626,1.282 ZM43.497,24.713 L43.497,12.613 C43.497,12.116 43.450,11.615 43.360,11.124 C42.635,6.989 39.028,3.992 34.783,3.992 L12.274,3.992 L7.405,3.992 L5.679,3.992 L5.679,16.198 C5.679,17.432 6.697,18.437 7.948,18.437 L11.731,18.437 C12.982,18.437 14.000,17.432 14.000,16.198 L14.000,13.483 C14.000,13.128 14.290,12.841 14.649,12.841 L26.165,12.841 C27.835,12.841 29.193,14.182 29.193,15.830 L29.193,29.062 L43.497,29.062 L43.497,24.713 ZM44.156,30.346 C44.152,30.346 44.149,30.348 44.145,30.348 L28.544,30.348 C28.540,30.348 28.537,30.346 28.533,30.346 L2.583,30.346 C1.874,30.346 1.297,30.916 1.297,31.618 C1.297,32.320 1.874,32.890 2.583,32.890 L45.417,32.890 C46.126,32.890 46.703,32.320 46.703,31.618 C46.703,30.916 46.126,30.346 45.417,30.346 L44.156,30.346 ZM46.703,12.478 C46.703,12.021 46.327,11.650 45.866,11.650 L44.745,11.650 C44.746,11.666 44.746,11.682 44.747,11.697 C44.777,12.001 44.794,12.308 44.794,12.613 L44.794,24.071 L45.866,24.071 C46.327,24.071 46.703,23.699 46.703,23.243 L46.703,12.478 ZM33.126,17.219 L39.454,17.219 C40.542,17.219 41.427,18.094 41.427,19.171 L41.427,24.481 C41.427,25.558 40.542,26.433 39.454,26.433 L33.126,26.433 C32.038,26.433 31.153,25.558 31.153,24.481 L31.153,19.171 C31.153,18.094 32.038,17.219 33.126,17.219 ZM32.450,24.481 C32.450,24.850 32.754,25.150 33.126,25.150 L39.454,25.150 C39.827,25.150 40.130,24.850 40.130,24.481 L40.130,19.171 C40.130,18.802 39.827,18.502 39.454,18.502 L33.126,18.502 C32.754,18.502 32.450,18.802 32.450,19.171 L32.450,24.481 ZM34.741,19.868 L37.839,19.868 C38.198,19.868 38.488,20.155 38.488,20.510 C38.488,20.864 38.198,21.152 37.839,21.152 L34.741,21.152 C34.382,21.152 34.092,20.864 34.092,20.510 C34.092,20.155 34.382,19.868 34.741,19.868 ZM34.741,22.377 L37.839,22.377 C38.198,22.377 38.488,22.665 38.488,23.019 C38.488,23.374 38.198,23.661 37.839,23.661 L34.741,23.661 C34.382,23.661 34.092,23.374 34.092,23.019 C34.092,22.665 34.382,22.377 34.741,22.377 ZM36.290,14.695 C34.423,14.695 32.905,13.193 32.905,11.346 C32.905,9.499 34.423,7.996 36.290,7.996 C38.157,7.996 39.675,9.499 39.675,11.346 C39.675,13.193 38.157,14.695 36.290,14.695 ZM36.290,9.280 C35.139,9.280 34.202,10.207 34.202,11.346 C34.202,12.485 35.139,13.412 36.290,13.412 C37.441,13.412 38.378,12.485 38.378,11.346 C38.378,10.207 37.441,9.280 36.290,9.280 ZM19.892,7.201 L18.919,7.201 C18.561,7.201 18.270,6.914 18.270,6.559 C18.270,6.205 18.561,5.917 18.919,5.917 L19.892,5.917 C20.251,5.917 20.541,6.205 20.541,6.559 C20.541,6.914 20.251,7.201 19.892,7.201 ZM13.791,7.201 L9.559,7.201 C9.208,7.201 8.922,7.484 8.922,7.831 L8.922,9.801 C8.922,10.155 8.632,10.442 8.273,10.442 C7.915,10.442 7.625,10.155 7.625,9.801 L7.625,7.831 C7.625,6.776 8.493,5.917 9.559,5.917 L13.791,5.917 C14.150,5.917 14.440,6.205 14.440,6.559 C14.440,6.914 14.150,7.201 13.791,7.201 Z"/>
</svg>
