<svg enable-background="new 0 0 80 100" height="100" viewBox="0 0 80 100" width="80" xmlns="http://www.w3.org/2000/svg"><g fill="#fff" stroke="#201600" stroke-miterlimit="10" stroke-width="2"><path d="m28.676 12.845c1.104 3.481-2.223 10.521-2.223 10.521s16.755 28.852 17.364 62.59h-42.817c0-32.152 14.497-62.59 14.497-62.59s-3.207-7.039-1.832-10.586"/><path d="m23.278 1.185c1.053-.074 1.583-.185 1.583-.185l.383 2.625 5.081 1.169c1.136.23 2.028 1.11 2.274 2.242l3.738 21.884-3.479-.26-4.084-15.78"/><path d="m13.593 12.758-3.969 15.902-3.477.26 3.739-21.884c.245-1.132 1.138-2.011 2.273-2.242l5.083-1.169.367-2.583s.5.088 1.506.15"/><path d="m15.497 23.366.493-.14c3.426-.983 7.064-.934 10.463.14"/><circle cx="21.243" cy="13.609" r=".926"/><circle cx="21.243" cy="19.19" r=".926"/><path d="m23.278 1.185-2.066 5.126-2.097-5.119"/></g></svg>