<svg enable-background="new -16.423 -7.643 80 100" height="100" viewBox="-16.423 -7.643 80 100" width="80" xmlns="http://www.w3.org/2000/svg"><g stroke="#201600" stroke-miterlimit="10" stroke-width="2"><path d="m29.214 9.756c.938 2.959-2.832 8.904-2.505 10.48.63 3.037 2.317 3.467 2.317 3.467 11.047 9.11 17.055 61.118 17.055 61.118h-45.008s3.445-48.729 14.449-61.216c0 0 1.958-.5 2.486-3.369.292-1.584-3.341-7.521-2.173-10.537" fill="#fff"/><path d="m15.774 9.988-3.066 14.442-2.647-1.009 3.215-18.344 4.979-1.009s1.456-.82 1.688-3.068h4.875c.482 2.437 2.1 3.068 2.1 3.068l4.979 1.009 3.216 18.344-2.653 1.009-3.164-14.338" fill="#fff"/><g fill="none"><path d="m15.302 23.736s5.111 1.419 13.684 0"/><path d="m18.362 3.771s3.051 1.909 8.221 0"/></g></g></svg>